<svg width="53" height="39" viewBox="0 0 53 39" fill="none" xmlns="http://www.w3.org/2000/svg">
<path d="M0 32.3889C0 33.9507 0.620435 35.4486 1.72482 36.553C2.8292 37.6573 4.32706 38.2778 5.88889 38.2778H47.1111C48.6729 38.2778 50.1708 37.6573 51.2752 36.553C52.3796 35.4486 53 33.9507 53 32.3889V25.0278H0V32.3889Z" fill="#138808"/>
<path d="M53 13.25V5.88889C53 4.32706 52.3796 2.8292 51.2752 1.72482C50.1708 0.620434 48.6729 0 47.1111 0H5.88889C4.32706 0 2.8292 0.620434 1.72482 1.72482C0.620435 2.8292 0 4.32706 0 5.88889L0 13.25H53Z" fill="#FF9933"/>
<path d="M0 12.7597H53V25.5195H0V12.7597Z" fill="#F7F7F7"/>
<path d="M26.5 25.0278C29.7523 25.0278 32.3889 22.3912 32.3889 19.1389C32.3889 15.8865 29.7523 13.25 26.5 13.25C23.2476 13.25 20.6111 15.8865 20.6111 19.1389C20.6111 22.3912 23.2476 25.0278 26.5 25.0278Z" fill="#000080"/>
<path d="M26.5 24.1076C29.2442 24.1076 31.4688 21.8831 31.4688 19.1389C31.4688 16.3947 29.2442 14.1701 26.5 14.1701C23.7558 14.1701 21.5312 16.3947 21.5312 19.1389C21.5312 21.8831 23.7558 24.1076 26.5 24.1076Z" fill="#F7F7F7"/>
<path d="M26.6473 17.2986L26.5001 18.2555L26.3528 17.2986L26.5001 14.4278L26.6473 17.2986ZM25.2811 14.5882L25.8817 17.3987L26.2719 18.285L26.1659 17.3236L25.2811 14.5882ZM24.1445 15.0593L25.4518 17.6181L26.0584 18.3733L25.708 17.4708L24.1445 15.0593ZM23.1684 15.8072L25.0941 17.942L25.8758 18.5147L25.3031 17.7329L23.1684 15.8072ZM22.4205 16.7833L24.832 18.3468L25.7345 18.6972L24.9792 18.0907L22.4205 16.7833ZM21.9494 17.9199L24.6848 18.8047L25.6462 18.9107L24.7599 18.5205L21.9494 17.9199ZM21.7889 19.1389L24.6598 19.2861L25.6167 19.1389L24.6598 18.9917L21.7889 19.1389ZM21.9494 20.3579L24.7599 19.7572L25.6462 19.3671L24.6848 19.4731L21.9494 20.3579ZM22.4205 21.4944L24.9792 20.1871L25.7345 19.5805L24.832 19.9309L22.4205 21.4944ZM23.1684 22.4705L25.3031 20.5448L25.8758 19.7631L25.0941 20.3358L23.1684 22.4705ZM24.1445 23.2184L25.708 20.8069L26.0584 19.9044L25.4518 20.6597L24.1445 23.2184ZM25.2811 23.6895L26.1659 20.9541L26.2719 19.9928L25.8817 20.879L25.2811 23.6895ZM26.5001 23.85L26.6473 20.9792L26.5001 20.0222L26.3528 20.9792L26.5001 23.85ZM27.719 23.6895L27.1184 20.879L26.7282 19.9928L26.8342 20.9541L27.719 23.6895ZM28.8556 23.2184L27.5483 20.6597L26.9417 19.9044L27.2921 20.8069L28.8556 23.2184ZM29.8317 22.4705L27.906 20.3358L27.1243 19.7631L27.697 20.5448L29.8317 22.4705ZM30.5796 21.4944L28.1681 19.9309L27.2656 19.5805L28.0209 20.1871L30.5796 21.4944ZM31.0507 20.3579L28.3153 19.4731L27.3539 19.3671L28.2402 19.7572L31.0507 20.3579ZM31.2112 19.1389L28.3403 18.9917L27.3834 19.1389L28.3403 19.2861L31.2112 19.1389ZM31.0507 17.9199L28.2402 18.5205L27.3539 18.9107L28.3153 18.8047L31.0507 17.9199ZM30.5796 16.7833L28.0209 18.0907L27.2656 18.6972L28.1681 18.3468L30.5796 16.7833ZM29.8317 15.8072L27.697 17.7329L27.1243 18.5147L27.906 17.942L29.8317 15.8072ZM28.8556 15.0593L27.2921 17.4708L26.9417 18.3733L27.5483 17.6181L28.8556 15.0593ZM27.719 14.5882L26.8342 17.3236L26.7282 18.285L27.1184 17.3987L27.719 14.5882Z" fill="#6666B3"/>
<path d="M25.8521 14.5146C26.0147 14.5146 26.1465 14.3828 26.1465 14.2202C26.1465 14.0575 26.0147 13.9257 25.8521 13.9257C25.6894 13.9257 25.5576 14.0575 25.5576 14.2202C25.5576 14.3828 25.6894 14.5146 25.8521 14.5146Z" fill="#000080"/>
<path d="M24.6008 14.8503C24.7635 14.8503 24.8953 14.7185 24.8953 14.5559C24.8953 14.3933 24.7635 14.2614 24.6008 14.2614C24.4382 14.2614 24.3064 14.3933 24.3064 14.5559C24.3064 14.7185 24.4382 14.8503 24.6008 14.8503Z" fill="#000080"/>
<path d="M23.479 15.4966C23.6416 15.4966 23.7735 15.3647 23.7735 15.2021C23.7735 15.0395 23.6416 14.9077 23.479 14.9077C23.3164 14.9077 23.1846 15.0395 23.1846 15.2021C23.1846 15.3647 23.3164 15.4966 23.479 15.4966Z" fill="#000080"/>
<path d="M22.5632 16.4123C22.7259 16.4123 22.8577 16.2805 22.8577 16.1179C22.8577 15.9553 22.7259 15.8234 22.5632 15.8234C22.4006 15.8234 22.2688 15.9553 22.2688 16.1179C22.2688 16.2805 22.4006 16.4123 22.5632 16.4123Z" fill="#000080"/>
<path d="M21.917 17.5342C22.0796 17.5342 22.2114 17.4023 22.2114 17.2397C22.2114 17.0771 22.0796 16.9453 21.917 16.9453C21.7544 16.9453 21.6226 17.0771 21.6226 17.2397C21.6226 17.4023 21.7544 17.5342 21.917 17.5342Z" fill="#000080"/>
<path d="M21.5813 18.7855C21.7439 18.7855 21.8758 18.6537 21.8758 18.4911C21.8758 18.3285 21.7439 18.1967 21.5813 18.1967C21.4187 18.1967 21.2869 18.3285 21.2869 18.4911C21.2869 18.6537 21.4187 18.7855 21.5813 18.7855Z" fill="#000080"/>
<path d="M21.5813 20.0811C21.7439 20.0811 21.8758 19.9493 21.8758 19.7867C21.8758 19.624 21.7439 19.4922 21.5813 19.4922C21.4187 19.4922 21.2869 19.624 21.2869 19.7867C21.2869 19.9493 21.4187 20.0811 21.5813 20.0811Z" fill="#000080"/>
<path d="M21.917 21.3324C22.0796 21.3324 22.2114 21.2006 22.2114 21.038C22.2114 20.8754 22.0796 20.7436 21.917 20.7436C21.7544 20.7436 21.6226 20.8754 21.6226 21.038C21.6226 21.2006 21.7544 21.3324 21.917 21.3324Z" fill="#000080"/>
<path d="M22.5632 22.4543C22.7259 22.4543 22.8577 22.3225 22.8577 22.1599C22.8577 21.9972 22.7259 21.8654 22.5632 21.8654C22.4006 21.8654 22.2688 21.9972 22.2688 22.1599C22.2688 22.3225 22.4006 22.4543 22.5632 22.4543Z" fill="#000080"/>
<path d="M23.479 23.37C23.6416 23.37 23.7735 23.2382 23.7735 23.0756C23.7735 22.913 23.6416 22.7812 23.479 22.7812C23.3164 22.7812 23.1846 22.913 23.1846 23.0756C23.1846 23.2382 23.3164 23.37 23.479 23.37Z" fill="#000080"/>
<path d="M24.6008 24.0163C24.7635 24.0163 24.8953 23.8845 24.8953 23.7219C24.8953 23.5593 24.7635 23.4274 24.6008 23.4274C24.4382 23.4274 24.3064 23.5593 24.3064 23.7219C24.3064 23.8845 24.4382 24.0163 24.6008 24.0163Z" fill="#000080"/>
<path d="M25.8521 24.352C26.0147 24.352 26.1465 24.2202 26.1465 24.0576C26.1465 23.8949 26.0147 23.7631 25.8521 23.7631C25.6894 23.7631 25.5576 23.8949 25.5576 24.0576C25.5576 24.2202 25.6894 24.352 25.8521 24.352Z" fill="#000080"/>
<path d="M27.1477 24.352C27.3103 24.352 27.4422 24.2202 27.4422 24.0576C27.4422 23.8949 27.3103 23.7631 27.1477 23.7631C26.9851 23.7631 26.8533 23.8949 26.8533 24.0576C26.8533 24.2202 26.9851 24.352 27.1477 24.352Z" fill="#000080"/>
<path d="M28.3993 24.0163C28.5619 24.0163 28.6937 23.8845 28.6937 23.7219C28.6937 23.5593 28.5619 23.4274 28.3993 23.4274C28.2367 23.4274 28.1049 23.5593 28.1049 23.7219C28.1049 23.8845 28.2367 24.0163 28.3993 24.0163Z" fill="#000080"/>
<path d="M29.5211 23.37C29.6837 23.37 29.8156 23.2382 29.8156 23.0756C29.8156 22.913 29.6837 22.7812 29.5211 22.7812C29.3585 22.7812 29.2267 22.913 29.2267 23.0756C29.2267 23.2382 29.3585 23.37 29.5211 23.37Z" fill="#000080"/>
<path d="M30.4365 22.4543C30.5991 22.4543 30.731 22.3225 30.731 22.1599C30.731 21.9972 30.5991 21.8654 30.4365 21.8654C30.2739 21.8654 30.1421 21.9972 30.1421 22.1599C30.1421 22.3225 30.2739 22.4543 30.4365 22.4543Z" fill="#000080"/>
<path d="M31.0831 21.3324C31.2458 21.3324 31.3776 21.2006 31.3776 21.038C31.3776 20.8754 31.2458 20.7436 31.0831 20.7436C30.9205 20.7436 30.7887 20.8754 30.7887 21.038C30.7887 21.2006 30.9205 21.3324 31.0831 21.3324Z" fill="#000080"/>
<path d="M31.4185 20.0811C31.5811 20.0811 31.7129 19.9493 31.7129 19.7867C31.7129 19.624 31.5811 19.4922 31.4185 19.4922C31.2558 19.4922 31.124 19.624 31.124 19.7867C31.124 19.9493 31.2558 20.0811 31.4185 20.0811Z" fill="#000080"/>
<path d="M31.4185 18.7855C31.5811 18.7855 31.7129 18.6537 31.7129 18.4911C31.7129 18.3285 31.5811 18.1967 31.4185 18.1967C31.2558 18.1967 31.124 18.3285 31.124 18.4911C31.124 18.6537 31.2558 18.7855 31.4185 18.7855Z" fill="#000080"/>
<path d="M31.0831 17.5342C31.2458 17.5342 31.3776 17.4023 31.3776 17.2397C31.3776 17.0771 31.2458 16.9453 31.0831 16.9453C30.9205 16.9453 30.7887 17.0771 30.7887 17.2397C30.7887 17.4023 30.9205 17.5342 31.0831 17.5342Z" fill="#000080"/>
<path d="M30.4365 16.4123C30.5991 16.4123 30.731 16.2805 30.731 16.1179C30.731 15.9553 30.5991 15.8234 30.4365 15.8234C30.2739 15.8234 30.1421 15.9553 30.1421 16.1179C30.1421 16.2805 30.2739 16.4123 30.4365 16.4123Z" fill="#000080"/>
<path d="M29.5211 15.4966C29.6837 15.4966 29.8156 15.3647 29.8156 15.2021C29.8156 15.0395 29.6837 14.9077 29.5211 14.9077C29.3585 14.9077 29.2267 15.0395 29.2267 15.2021C29.2267 15.3647 29.3585 15.4966 29.5211 15.4966Z" fill="#000080"/>
<path d="M28.3993 14.8503C28.5619 14.8503 28.6937 14.7185 28.6937 14.5559C28.6937 14.3933 28.5619 14.2614 28.3993 14.2614C28.2367 14.2614 28.1049 14.3933 28.1049 14.5559C28.1049 14.7185 28.2367 14.8503 28.3993 14.8503Z" fill="#000080"/>
<path d="M27.1477 14.5146C27.3103 14.5146 27.4422 14.3828 27.4422 14.2202C27.4422 14.0575 27.3103 13.9257 27.1477 13.9257C26.9851 13.9257 26.8533 14.0575 26.8533 14.2202C26.8533 14.3828 26.9851 14.5146 27.1477 14.5146Z" fill="#000080"/>
<path d="M26.5002 20.4638C27.2319 20.4638 27.8252 19.8706 27.8252 19.1388C27.8252 18.4071 27.2319 17.8138 26.5002 17.8138C25.7684 17.8138 25.1752 18.4071 25.1752 19.1388C25.1752 19.8706 25.7684 20.4638 26.5002 20.4638Z" fill="#000080"/>
</svg>
